<svg width="39" height="39" viewBox="0 0 39 39" fill="none" xmlns="http://www.w3.org/2000/svg">
<path fill-rule="evenodd" clip-rule="evenodd" d="M14.2188 3.25C14.2188 2.5769 13.6731 2.03125 13 2.03125C12.3269 2.03125 11.7812 2.5769 11.7812 3.25V5.6875H8.875C6.66586 5.6875 4.875 7.47836 4.875 9.6875V13.4062H34.125V9.6875C34.125 7.47836 32.3341 5.6875 30.125 5.6875H27.2188V3.25C27.2188 2.5769 26.6731 2.03125 26 2.03125C25.3269 2.03125 24.7812 2.5769 24.7812 3.25V5.6875H14.2188V3.25ZM4.875 15.8438H34.125V31.75C34.125 33.9591 32.3341 35.75 30.125 35.75H8.875C6.66586 35.75 4.875 33.9591 4.875 31.75V15.8438ZM19.5 26C20.3975 26 21.125 25.2725 21.125 24.375C21.125 23.4775 20.3975 22.75 19.5 22.75C18.6025 22.75 17.875 23.4775 17.875 24.375C17.875 25.2725 18.6025 26 19.5 26ZM27.625 24.375C27.625 25.2725 26.8975 26 26 26C25.1025 26 24.375 25.2725 24.375 24.375C24.375 23.4775 25.1025 22.75 26 22.75C26.8975 22.75 27.625 23.4775 27.625 24.375ZM13 26C13.8975 26 14.625 25.2725 14.625 24.375C14.625 23.4775 13.8975 22.75 13 22.75C12.1025 22.75 11.375 23.4775 11.375 24.375C11.375 25.2725 12.1025 26 13 26Z" fill="#C4C4C4"/>
</svg>
