<svg width="31" height="33" viewBox="0 0 31 33" fill="none" xmlns="http://www.w3.org/2000/svg">
<path fill-rule="evenodd" clip-rule="evenodd" d="M22.5076 20.3841C23.9961 18.2668 24.8739 15.6618 24.8739 12.8451C24.8739 5.75095 19.3057 0 12.4369 0C5.56821 0 0 5.75095 0 12.8451C0 19.9393 5.56821 25.6902 12.4369 25.6902C15.1974 25.6902 17.7477 24.7614 19.8111 23.1898L28.2304 32.1945L30.9832 29.4489L22.5076 20.3841ZM12.4369 21.6096C7.75026 21.6096 3.95094 17.6856 3.95094 12.8451C3.95094 8.00461 7.75026 4.08061 12.4369 4.08061C17.1236 4.08061 20.9229 8.00461 20.9229 12.8451C20.9229 17.6856 17.1236 21.6096 12.4369 21.6096Z" fill="#C4C4C4"/>
</svg>
