<svg width="46" height="46" viewBox="0 0 46 46" fill="none" xmlns="http://www.w3.org/2000/svg">
<path opacity="0.4" d="M17.6519 25.6758L10.5555 23.3103C6.70352 22.0263 6.70351 16.5779 10.5555 15.2939L32.7647 7.89078C36.0677 6.78979 39.21 9.93212 38.109 13.2351L30.706 35.4444C29.422 39.2963 23.9735 39.2963 22.6895 35.4444L20.324 28.3479C19.9035 27.0863 18.9135 26.0963 17.6519 25.6758Z" fill="#1AAC7A"/>
<path fill-rule="evenodd" clip-rule="evenodd" d="M19.2788 26.672C19.7485 27.1341 20.11 27.7058 20.324 28.3478L22.6895 35.4442C23.9734 39.2962 29.4219 39.2962 30.7059 35.4442L38.109 13.235C38.6637 11.5708 38.1413 9.94745 37.0638 8.88702L19.2788 26.672Z" fill="#1AAC7A"/>
</svg>
