<svg width="27" height="39" viewBox="0 0 27 39" fill="none" xmlns="http://www.w3.org/2000/svg">
<path d="M7.55692 0.315797C7.04054 0.314413 6.54475 0.518175 6.17859 0.882277C5.81242 1.24638 5.60585 1.74101 5.60431 2.25739C5.60697 2.53326 5.66798 2.80544 5.78333 3.05605C7.02815 6.59222 7.1149 9.20166 6.31898 11.5894C5.41429 14.2567 3.97669 16.9198 0.671853 20.2247C0.401293 20.4978 0.217074 20.8445 0.142147 21.2216C0.0672213 21.5986 0.104899 21.9894 0.250488 22.3453C0.398139 22.701 0.647887 23.0051 0.968204 23.219C1.28852 23.433 1.66504 23.5472 2.05024 23.5474L10.9816 23.5474L13.065 38.1258L15.1484 23.5474L24.0769 23.5474C24.3338 23.5484 24.5881 23.4974 24.8247 23.3973C25.0629 23.2995 25.2791 23.1577 25.4581 22.9787C25.6371 22.7997 25.7789 22.5835 25.8767 22.3453C26.0252 21.9901 26.0647 21.5989 25.9902 21.2212C25.9156 20.8436 25.7304 20.4967 25.4581 20.2247C22.1533 16.9198 20.7143 14.2581 19.8357 11.6197C19.0385 9.23333 19.1252 6.62389 20.3714 3.08635C20.4873 2.83646 20.5479 2.56451 20.549 2.28906C20.5475 1.77268 20.3409 1.27805 19.9748 0.913949C19.6086 0.549846 19.1128 0.346085 18.5964 0.347469L7.55692 0.315797Z" fill="#98D5B9"/>
</svg>
