<svg width="39" height="39" viewBox="0 0 39 39" fill="none" xmlns="http://www.w3.org/2000/svg">
<path fill-rule="evenodd" clip-rule="evenodd" d="M26.5417 5.6875C24.4476 5.6875 22.75 7.38509 22.75 9.47917V13.2708C22.75 15.3649 24.4476 17.0625 26.5417 17.0625H30.3333C32.4274 17.0625 34.125 15.3649 34.125 13.2708V9.47917C34.125 7.38509 32.4274 5.6875 30.3333 5.6875H26.5417ZM8.66667 21.9375C6.57259 21.9375 4.875 23.6351 4.875 25.7292V29.5208C4.875 31.6149 6.57259 33.3125 8.66667 33.3125H12.4583C14.5524 33.3125 16.25 31.6149 16.25 29.5208V25.7292C16.25 23.6351 14.5524 21.9375 12.4583 21.9375H8.66667ZM4.875 9.47917C4.875 7.38509 6.57259 5.6875 8.66667 5.6875H12.4583C14.5524 5.6875 16.25 7.38509 16.25 9.47917V13.2708C16.25 15.3649 14.5524 17.0625 12.4583 17.0625H8.66667C6.57259 17.0625 4.875 15.3649 4.875 13.2708V9.47917ZM26.5417 21.9375C24.4476 21.9375 22.75 23.6351 22.75 25.7292V29.5208C22.75 31.6149 24.4476 33.3125 26.5417 33.3125H30.3333C32.4274 33.3125 34.125 31.6149 34.125 29.5208V25.7292C34.125 23.6351 32.4274 21.9375 30.3333 21.9375H26.5417Z" fill="#C4C4C4"/>
</svg>
