<svg width="460" height="338" viewBox="0 0 460 338" fill="none" xmlns="http://www.w3.org/2000/svg">
<g clip-path="url(#clip0_167_400)">
<path opacity="0.2" d="M60.8768 171.242C54.8269 173.073 49.1643 177.505 47.653 183.655C45.9245 190.722 49.9105 197.846 50.4867 205.103C52.3475 228.878 18.5795 245.652 23.3968 269.006C25.3095 278.292 33.0407 285.123 40.6586 290.766C52.8623 299.778 66.4025 307.739 81.3974 309.986C104.157 313.402 127.936 303.364 150.057 309.707C167.9 314.826 181.554 329.826 199.274 335.36C212.762 339.575 227.294 337.915 241.306 336.207C248.863 335.289 256.778 334.23 262.875 329.689C274.21 321.235 274.923 304.542 282.513 292.578C294.235 274.129 319.936 270.506 341.486 274.092C363.036 277.677 383.963 286.504 405.797 285.785C410.463 285.629 415.242 284.995 419.313 282.701C424.263 279.915 427.606 275.005 430.563 270.146C449.041 239.667 459.183 204.853 459.972 169.203C460.099 163.077 459.882 156.687 457.006 151.28C453.369 144.44 446.101 140.348 438.866 137.595C421.49 130.972 402.297 129.889 385.271 122.419C368.85 115.215 355.551 102.58 341.25 91.7518C312.752 70.2152 279.72 55.4806 244.674 48.6716C236.461 47.0822 227.936 45.9468 219.775 47.7823C210.372 49.8968 202.268 55.7673 194.981 62.0871C175.593 78.8992 160.055 99.6422 142.189 118.067C129.864 130.774 116.443 142.366 102.083 152.708C95.4713 157.481 88.4438 163.148 81.0762 166.677C74.3321 169.904 68.0083 169.09 60.8768 171.242Z" fill="#34AD82"/>
<path d="M147.295 21.8263C147.295 21.8263 129.041 46.1077 142.099 74.41C155.158 102.712 119.34 148.186 119.34 148.186" stroke="#535461" stroke-width="2" stroke-miterlimit="10"/>
<path d="M155.479 12.7391C154.029 18.988 147.092 22.7109 147.092 22.7109C147.092 22.7109 142.51 16.3011 143.96 10.0522C145.41 3.80327 149.155 -0.66227 152.348 0.0804104C155.541 0.823091 156.929 6.49017 155.479 12.7391Z" fill="#8ED16F"/>
<path d="M150.819 11.6502C151.275 9.68834 151.049 7.95922 150.315 7.78809C149.581 7.61696 148.616 9.06863 148.16 11.0305C147.704 12.9924 147.93 14.7215 148.664 14.8926C149.399 15.0637 150.363 13.6121 150.819 11.6502Z" fill="#8ED16F"/>
<path opacity="0.3" d="M150.819 11.6502C151.275 9.68834 151.049 7.95922 150.315 7.78809C149.581 7.61696 148.616 9.06863 148.16 11.0305C147.704 12.9924 147.93 14.7215 148.664 14.8926C149.399 15.0637 150.363 13.6121 150.819 11.6502Z" fill="black"/>
<path d="M152.324 40.5021C146.298 42.6781 139.407 38.8653 139.407 38.8653C139.407 38.8653 142.288 31.5284 148.319 29.3572C154.35 27.1859 160.126 27.938 161.236 30.9939C162.346 34.0498 158.35 38.3261 152.324 40.5021Z" fill="#8ED16F"/>
<path d="M150.631 35.6842C152.522 34.9994 153.846 33.8688 153.59 33.1591C153.334 32.4494 151.593 32.4292 149.703 33.1141C147.813 33.7989 146.488 34.9295 146.744 35.6392C147.001 36.3489 148.741 36.3691 150.631 35.6842Z" fill="#8ED16F"/>
<path opacity="0.3" d="M150.631 35.6842C152.522 34.9994 153.846 33.8688 153.59 33.1591C153.334 32.4494 151.593 32.4292 149.703 33.1141C147.813 33.7989 146.488 34.9295 146.744 35.6392C147.001 36.3489 148.741 36.3691 150.631 35.6842Z" fill="black"/>
<path d="M150.922 62.6264C144.895 64.8024 138.005 60.9897 138.005 60.9897C138.005 60.9897 140.886 53.6528 146.917 51.4815C152.948 49.3102 158.724 50.0623 159.834 53.1182C160.943 56.1741 156.948 60.4551 150.922 62.6264Z" fill="#8ED16F"/>
<path d="M149.299 58.1429C151.191 57.4606 152.518 56.3316 152.263 55.6212C152.007 54.9108 150.266 54.888 148.374 55.5703C146.482 56.2527 145.155 57.3817 145.411 58.0921C145.666 58.8025 147.407 58.8252 149.299 58.1429Z" fill="#8ED16F"/>
<path opacity="0.3" d="M149.299 58.1429C151.191 57.4606 152.518 56.3316 152.263 55.6212C152.007 54.9108 150.266 54.888 148.374 55.5703C146.482 56.2527 145.155 57.3817 145.411 58.0921C145.666 58.8025 147.407 58.8252 149.299 58.1429Z" fill="black"/>
<path d="M157.963 88.5824C151.937 90.7584 145.046 86.9456 145.046 86.9456C145.046 86.9456 147.927 79.6087 153.958 77.4374C159.989 75.2662 165.765 76.0183 166.875 79.0742C167.985 82.13 163.989 86.4206 157.963 88.5824Z" fill="#8ED16F"/>
<path d="M156.341 84.1104C158.234 83.4281 159.56 82.2991 159.305 81.5887C159.05 80.8783 157.309 80.8555 155.417 81.5379C153.525 82.2202 152.198 83.3492 152.453 84.0596C152.708 84.77 154.449 84.7927 156.341 84.1104Z" fill="#8ED16F"/>
<path opacity="0.3" d="M156.341 84.1104C158.234 83.4281 159.56 82.2991 159.305 81.5887C159.05 80.8783 157.309 80.8555 155.417 81.5379C153.525 82.2202 152.198 83.3492 152.453 84.0596C152.708 84.77 154.449 84.7927 156.341 84.1104Z" fill="black"/>
<path d="M153.382 112.32C147.356 114.496 140.465 110.683 140.465 110.683C140.465 110.683 143.346 103.346 149.377 101.175C155.408 99.0036 161.184 99.7557 162.294 102.812C163.404 105.867 159.413 110.148 153.382 112.32Z" fill="#8ED16F"/>
<path d="M151.773 107.444C153.664 106.76 154.988 105.629 154.732 104.919C154.476 104.21 152.736 104.189 150.845 104.874C148.955 105.559 147.63 106.69 147.886 107.399C148.143 108.109 149.883 108.129 151.773 107.444Z" fill="#8ED16F"/>
<path opacity="0.3" d="M151.773 107.444C153.664 106.76 154.988 105.629 154.732 104.919C154.476 104.21 152.736 104.189 150.845 104.874C148.955 105.559 147.63 106.69 147.886 107.399C148.143 108.109 149.883 108.129 151.773 107.444Z" fill="black"/>
<path d="M125.116 46.7889C129.565 51.4058 137.429 51.0463 137.429 51.0463C137.429 51.0463 138.076 43.189 133.627 38.5721C129.178 33.9552 123.666 32.0535 121.314 34.3147C118.962 36.5758 120.667 42.1719 125.116 46.7889Z" fill="#8ED16F"/>
<path d="M132.07 45.1504C132.612 44.626 131.919 43.0261 130.523 41.5769C129.126 40.1277 127.554 39.378 127.012 39.9024C126.469 40.4268 127.162 42.0267 128.559 43.4759C129.955 44.9251 131.527 45.6748 132.07 45.1504Z" fill="#8ED16F"/>
<path opacity="0.3" d="M132.07 45.1504C132.612 44.626 131.919 43.0261 130.523 41.5769C129.126 40.1277 127.554 39.378 127.012 39.9024C126.469 40.4268 127.162 42.0267 128.559 43.4759C129.955 44.9251 131.527 45.6748 132.07 45.1504Z" fill="black"/>
<path d="M122.561 120.106C127.01 124.723 134.873 124.363 134.873 124.363C134.873 124.363 135.52 116.506 131.072 111.889C126.623 107.272 121.111 105.371 118.759 107.632C116.407 109.893 118.112 115.489 122.561 120.106Z" fill="#8ED16F"/>
<path d="M129.508 118.474C130.051 117.95 129.358 116.35 127.961 114.901C126.564 113.451 124.993 112.702 124.45 113.226C123.908 113.75 124.601 115.35 125.997 116.8C127.394 118.249 128.966 118.998 129.508 118.474Z" fill="#8ED16F"/>
<path opacity="0.3" d="M129.508 118.474C130.051 117.95 129.358 116.35 127.961 114.901C126.564 113.451 124.993 112.702 124.45 113.226C123.908 113.75 124.601 115.35 125.997 116.8C127.394 118.249 128.966 118.998 129.508 118.474Z" fill="black"/>
<path d="M128.46 72.7022C134.193 75.5689 141.481 72.5887 141.481 72.5887C141.481 72.5887 139.473 64.968 133.745 62.1013C128.016 59.2347 122.183 59.263 120.724 62.2148C119.265 65.1666 122.726 69.8356 128.46 72.7022Z" fill="#8ED16F"/>
<path d="M134.453 68.8203C134.789 68.1447 133.604 66.868 131.804 65.9686C130.005 65.0692 128.273 64.8877 127.937 65.5633C127.6 66.2389 128.786 67.5157 130.585 68.4151C132.385 69.3145 134.116 69.4959 134.453 68.8203Z" fill="#8ED16F"/>
<path opacity="0.3" d="M134.453 68.8203C134.789 68.1447 133.604 66.868 131.804 65.9686C130.005 65.0692 128.273 64.8877 127.937 65.5633C127.6 66.2389 128.786 67.5157 130.585 68.4151C132.385 69.3145 134.116 69.4959 134.453 68.8203Z" fill="black"/>
<path d="M130.864 98.5163C136.597 101.383 143.884 98.4028 143.884 98.4028C143.884 98.4028 141.877 90.782 136.148 87.9154C130.42 85.0487 124.587 85.0771 123.128 88.0289C121.668 90.9807 125.154 95.678 130.864 98.5163Z" fill="#8ED16F"/>
<path d="M136.859 94.6378C137.195 93.9622 136.009 92.6854 134.21 91.786C132.41 90.8866 130.679 90.7052 130.342 91.3808C130.006 92.0563 131.192 93.3331 132.991 94.2325C134.79 95.1319 136.522 95.3133 136.859 94.6378Z" fill="#8ED16F"/>
<path opacity="0.3" d="M136.859 94.6378C137.195 93.9622 136.009 92.6854 134.21 91.786C132.41 90.8866 130.679 90.7052 130.342 91.3808C130.006 92.0563 131.192 93.3331 132.991 94.2325C134.79 95.1319 136.522 95.3133 136.859 94.6378Z" fill="black"/>
<path d="M59.3795 74.0173C59.3795 74.0173 92.7177 107.41 73.8974 156.961C55.077 206.512 106.159 288.912 106.159 288.912C106.159 288.912 105.611 288.832 104.596 288.652C36.115 276.547 2.11091 198.106 40.1766 139.837C54.3119 118.171 65.9536 92.7594 59.3795 74.0173Z" fill="#8ED16F"/>
<path d="M0 209.076C0 209.076 38.0421 203.007 41.5086 237.156C44.9752 271.305 114.66 276.041 114.66 276.041C114.66 276.041 114.188 276.353 113.352 276.911C55.814 314.755 0.812323 301.008 9.10082 250.775C12.1895 232.095 11.9345 213.338 0 209.076Z" fill="#8ED16F"/>
<g opacity="0.3">
<path opacity="0.3" d="M0 209.076C0 209.076 38.0421 203.007 41.5086 237.156C44.9752 271.305 114.66 276.041 114.66 276.041C114.66 276.041 114.188 276.353 113.352 276.911C55.814 314.755 0.812323 301.008 9.10082 250.775C12.1895 232.095 11.9345 213.338 0 209.076Z" fill="white"/>
</g>
<path d="M49.75 208.655C55.5275 208.655 60.211 196.416 60.211 181.318C60.211 166.22 55.5275 153.981 49.75 153.981C43.9726 153.981 39.2891 166.22 39.2891 181.318C39.2891 196.416 43.9726 208.655 49.75 208.655Z" fill="#8ED16F"/>
<path opacity="0.3" d="M49.75 208.655C55.5275 208.655 60.211 196.416 60.211 181.318C60.211 166.22 55.5275 153.981 49.75 153.981C43.9726 153.981 39.2891 166.22 39.2891 181.318C39.2891 196.416 43.9726 208.655 49.75 208.655Z" fill="black"/>
<path d="M48.7941 280.602C51.5478 277.843 48.8116 270.631 42.6828 264.492C36.554 258.354 29.3533 255.613 26.5997 258.371C23.846 261.129 26.5822 268.342 32.711 274.48C38.8398 280.619 46.0405 283.36 48.7941 280.602Z" fill="#8ED16F"/>
<path opacity="0.3" d="M48.7941 280.602C51.5478 277.843 48.8116 270.631 42.6828 264.492C36.554 258.354 29.3533 255.613 26.5997 258.371C23.846 261.129 26.5822 268.342 32.711 274.48C38.8398 280.619 46.0405 283.36 48.7941 280.602Z" fill="black"/>
<path d="M341.878 125.574H94.2432C91.2508 125.574 88.381 126.765 86.2651 128.884C84.1492 131.004 82.9604 133.878 82.9604 136.876V282.256C82.9604 285.254 84.1492 288.128 86.2651 290.247C88.381 292.367 91.2508 293.557 94.2432 293.557H341.878C344.87 293.557 347.74 292.367 349.856 290.247C351.972 288.128 353.161 285.254 353.161 282.256V136.876C353.161 133.878 351.972 131.004 349.856 128.884C347.74 126.765 344.87 125.574 341.878 125.574Z" fill="url(#paint0_linear_167_400)"/>
<path d="M338.261 127.552H97.8564C91.3851 127.552 86.1392 132.806 86.1392 139.288V279.844C86.1392 286.326 91.3851 291.58 97.8564 291.58H338.261C344.732 291.58 349.978 286.326 349.978 279.844V139.288C349.978 132.806 344.732 127.552 338.261 127.552Z" fill="#34AD82"/>
<path d="M349.978 156.256H86.1392V186.328H349.978V156.256Z" fill="#34AD82"/>
<path opacity="0.3" d="M349.978 156.256H86.1392V186.328H349.978V156.256Z" fill="black"/>
<path d="M324.961 208.655H111.16V223.235H324.961V208.655Z" fill="#D6D6E3"/>
<path d="M128.899 280.648C140.457 280.648 149.826 271.264 149.826 259.687C149.826 248.111 140.457 238.727 128.899 238.727C117.342 238.727 107.973 248.111 107.973 259.687C107.973 271.264 117.342 280.648 128.899 280.648Z" fill="#34AD82"/>
<path opacity="0.3" d="M128.899 280.648C140.457 280.648 149.826 271.264 149.826 259.687C149.826 248.111 140.457 238.727 128.899 238.727C117.342 238.727 107.973 248.111 107.973 259.687C107.973 271.264 117.342 280.648 128.899 280.648Z" fill="black"/>
<path d="M334.978 87.1065C335.316 88.1763 336.033 89.085 336.995 89.6609C341.335 92.5323 350.771 91.9221 351.905 91.9221C352.145 91.9221 352.462 92.3525 352.811 93.0763C354.479 96.52 357.062 106.615 357.237 108.885C357.468 111.634 360.018 124.496 364.193 129.288C364.321 129.434 364.448 129.572 364.571 129.699C368.666 133.82 373.469 129.288 373.469 129.288L374.158 126.89C373.965 127.836 373.748 128.938 373.53 130.172C373.422 130.792 373.313 131.45 373.209 132.126C372.587 135.938 372.26 139.792 372.231 143.654C372.221 145.057 372.281 146.459 372.411 147.855C372.449 148.243 372.491 148.626 372.543 149C372.756 150.7 372.861 152.413 372.855 154.127C372.817 164.307 370.224 176.971 370.224 176.971L370.323 176.938C370.262 177.255 370.224 177.411 370.224 177.411L370.375 177.363C370.303 177.833 370.234 178.314 370.168 178.806C369.289 185.192 368.784 193.139 368.543 197.728C368.418 200.148 368.526 202.575 368.864 204.975L373.474 237.478V252.615C373.458 254.909 373.737 257.195 374.305 259.418C375.807 265.137 374.569 285.099 373.875 294.57C373.681 297.152 373.53 298.96 373.488 299.48V299.636L373.62 299.584C373.62 299.693 373.62 299.75 373.62 299.75C373.817 299.665 374.023 299.605 374.234 299.57C372.406 302.408 369.096 307.101 366.55 307.891C365.05 308.348 363.715 309.234 362.71 310.44L362.644 310.53L362.55 310.663C362.235 311.084 362.044 311.586 361.997 312.11C361.96 312.02 361.932 311.927 361.912 311.831C361.719 312.886 362.351 313.851 364.34 314.319C365.499 314.541 366.679 314.636 367.858 314.603C374.753 314.603 386.99 312.479 388.341 310.194V302.313L388.563 302.384V302.455L389.408 302.734L391.727 294.939C394.509 292.876 392.199 255.964 391.727 247.483C391.302 239.753 396.077 209.005 396.922 203.589L396.809 203.452L396.936 202.662C397.107 202.785 397.265 202.925 397.409 203.078C397.686 203.408 397.928 203.767 398.131 204.147C398.531 204.824 398.873 205.533 399.156 206.266C403.822 217.922 405.924 251.253 405.924 254.243V285.587C405.914 288.68 406.344 291.758 407.199 294.73C407.628 296.295 407.959 297.884 408.191 299.489C408.29 300.118 408.375 300.743 408.455 301.339C408.536 301.935 408.616 302.616 408.677 303.174C408.677 303.321 408.71 303.463 408.725 303.595C408.739 303.728 408.725 303.723 408.725 303.789C408.852 305.024 408.918 305.833 408.918 305.833C408.936 305.765 408.968 305.702 409.013 305.648L409.036 305.946C409.07 305.834 409.133 305.732 409.22 305.653C409.412 305.464 409.621 305.293 409.844 305.142V309.125L409.73 309.04V309.726C414.538 313.359 422.364 314.456 428.371 314.414C432.268 314.414 435.423 313.941 436.518 313.392C438.086 312.621 437.227 310.824 435.8 309.447C434.695 308.378 433.255 307.555 432.343 307.659C430.822 307.824 425.623 301.926 422.898 298.695L423.205 298.557L423.639 298.368V246.106C423.639 246.106 424.338 225.472 426.421 205.065C427.409 194.778 426.193 184.398 422.855 174.62L422.789 174.426L423.422 174.525C424.093 174.629 424.451 174.691 424.451 174.691C424.451 174.691 424.451 174.53 424.409 174.218H424.451C424.451 174.218 423.639 165.367 423.63 154.25C423.63 141.649 424.692 126.284 429.089 117.589C431.621 112.585 432.466 108.602 432.395 105.461C432.506 102.697 431.711 99.9725 430.133 97.7027C429.471 96.789 428.571 96.0754 427.531 95.6402L427.441 95.5881H427.394C426.634 95.2803 425.823 95.1198 425.004 95.1151H415.506C414.407 95.116 413.327 94.8307 412.371 94.2873L408.654 92.1775C407.416 89.467 407.237 86.1083 407.501 82.9578C407.501 82.7071 407.549 82.4564 407.572 82.2104L407.841 81.9266C408.049 81.7043 408.243 81.4536 408.432 81.2407C408.427 81.4274 408.413 81.6137 408.389 81.7989C408.342 82.0969 408.262 82.2719 408.134 82.3098C410.165 82.0449 412.432 81.6428 413.679 80.0723C413.731 80.0108 413.778 79.9446 413.825 79.8783C414.194 79.2809 414.499 78.6468 414.737 77.9862C414.911 77.5348 415.145 77.1085 415.431 76.7184C415.743 76.3116 416.149 75.9804 416.484 75.5925L416.541 75.5263C417.736 74.1072 417.802 72.0731 417.816 70.2188C417.84 65.7154 417.707 60.7579 414.699 57.3803C412.201 54.5704 408.215 53.5061 404.432 53.3831C400.649 53.2601 396.875 53.9413 393.097 53.9602C390.528 53.9602 387.429 53.9176 386.013 56.0463C385.318 57.0918 385.233 58.4589 384.478 59.4617C384.043 60.0388 383.377 60.5355 383.34 61.2546C383.335 61.5863 383.42 61.9132 383.585 62.2007V62.2338C384.501 64.0408 386.447 65.1666 388.478 65.5214C388.135 65.9353 387.819 66.3715 387.533 66.827C386.293 68.8123 385.639 71.108 385.644 73.4497C385.644 73.724 385.644 73.9937 385.673 74.2633C385.883 77.4439 387.299 80.4237 389.63 82.5936C389.593 82.8585 389.555 83.1234 389.512 83.3836L389.597 83.4593C389.865 83.7021 390.144 83.9323 390.433 84.1499L390.537 84.2303C390.537 84.3959 390.537 84.5615 390.537 84.7034C390.537 84.9778 390.537 85.2569 390.509 85.5265C390.48 85.7961 390.509 85.9617 390.48 86.1793L390.419 86.1273L385.805 82.2672L378.385 75.3891C378.385 75.3891 359.834 61.8648 358.904 68.2935C358.791 69.4352 359.106 70.5781 359.787 71.5007C363.192 76.7042 374.9 81.1319 374.9 81.1319C374.9 81.1319 381.88 88.5256 386.551 96.4964C386.386 96.5863 386.22 96.6714 386.046 96.7518C381.89 98.6866 375.826 97.8682 375.826 97.8682C368.822 98.961 368.189 106.648 368.227 109.756C368.227 109.902 368.227 110.044 368.227 110.172C368.227 110.3 368.227 110.328 368.227 110.399L358.932 88.5398L358.904 88.4736C358.601 87.7619 358.123 87.1383 357.516 86.6604C356.908 86.1825 356.19 85.8657 355.428 85.7394C349.213 84.6939 333.679 82.5132 334.978 87.1065ZM373.889 299.504C374.025 299.471 374.162 299.446 374.3 299.428L374.258 299.494L373.889 299.504Z" fill="url(#paint1_linear_167_400)"/>
<path d="M420.329 295.033C420.329 295.033 429.132 306.117 431.167 305.89C433.203 305.663 437.94 310.185 435.234 311.566C432.527 312.948 416.947 313.827 409.258 307.947V299.087L420.329 295.033Z" fill="#ACA9C9"/>
<path d="M375.845 295.71C375.845 295.71 370.65 304.981 367.041 306.117C363.433 307.252 360.269 311.32 365.011 312.451C369.752 313.581 386.688 311.093 388.266 308.378V296.386L375.845 295.71Z" fill="#ACA9C9"/>
<path d="M369.322 204.625L373.809 236.688V251.594C373.795 253.855 374.068 256.109 374.621 258.301C376.085 263.945 374.881 283.633 374.201 292.976C373.979 296.022 373.809 297.971 373.809 297.971C376.742 296.613 389.163 300.909 389.163 300.909L390.419 296.627L391.42 293.222C394.131 291.187 391.893 254.777 391.42 246.39C391.113 240.662 393.664 222.09 395.298 210.959C395.77 207.813 396.152 205.283 396.384 203.759C396.53 202.813 396.611 202.288 396.611 202.288C397.108 202.695 397.522 203.194 397.829 203.759C398.218 204.428 398.551 205.127 398.826 205.85C403.369 217.35 405.437 250.227 405.437 253.155V284.073C405.428 287.123 405.846 290.16 406.68 293.094C407.239 295.234 407.648 297.41 407.903 299.608C408.224 302.063 408.375 304.04 408.375 304.04C408.602 302.682 422.6 296.575 422.6 296.575V245.014C422.6 245.014 423.275 224.673 425.311 204.53C426.186 195.368 425.304 186.123 422.713 177.292C422.151 175.367 421.589 173.735 421.103 172.444C420.277 170.244 419.686 169.028 419.686 169.028H373.573C372.798 169.175 372.156 170.736 371.575 173.106C371.197 174.695 370.867 176.644 370.579 178.783C369.724 185.079 369.233 192.917 368.996 197.449C368.877 199.846 368.986 202.249 369.322 204.625Z" fill="#618FD8"/>
<g opacity="0.1">
<path opacity="0.1" d="M421.788 296.722V245.16C421.788 245.16 422.463 224.819 424.499 204.677C426.534 184.535 418.831 169.17 418.831 169.17H419.733C419.733 169.17 427.408 184.549 425.401 204.677C423.394 224.805 422.69 245.16 422.69 245.16V296.722C422.69 296.722 408.692 302.829 408.465 304.187C408.465 304.187 408.465 303.884 408.394 303.364C411.445 301.24 421.788 296.722 421.788 296.722Z" fill="black"/>
<path opacity="0.1" d="M375.164 297.829C374.738 297.838 374.317 297.924 373.922 298.084V297.857C374.335 297.816 374.75 297.806 375.164 297.829Z" fill="black"/>
<path opacity="0.1" d="M390.631 293.335C393.342 291.301 391.104 254.891 390.631 246.504C390.159 238.117 395.827 202.406 395.827 202.406C396.123 202.636 396.386 202.907 396.606 203.211C395.775 208.547 391.127 238.883 391.538 246.504C392.011 254.872 394.249 291.282 391.538 293.335L389.281 301.022L388.459 300.748L390.631 293.335Z" fill="black"/>
</g>
<path d="M378.551 113.204L373.828 129.941C373.828 129.941 368.86 134.671 364.798 129.941C360.736 125.21 358.233 112.528 357.988 109.813C357.742 107.097 354.148 93.0763 352.793 93.0763C351.437 93.0763 337.892 93.9798 336.31 88.3459C335.044 83.8141 350.167 85.9806 356.222 86.9977C356.967 87.1248 357.668 87.4387 358.26 87.9101C358.853 88.3815 359.316 88.9952 359.608 89.694L368.893 111.903C368.893 111.903 373.809 106.194 378.551 113.204Z" fill="#F7C4A7"/>
<path d="M409.031 74.3059C409.031 74.3059 403.161 90.8151 410.614 96.6951C418.066 102.575 383.963 104.16 383.963 104.16L388.591 99.751C388.591 99.751 391.864 86.747 389.607 75.8906L409.031 74.3059Z" fill="#F7C4A7"/>
<path opacity="0.1" d="M401.806 96.6951C401.806 96.6951 407.789 95.2239 407.789 93.644L413.093 96.6951H426.416C426.416 96.6951 436.126 102.121 427.998 118.408C419.87 134.695 423.483 174.7 423.483 174.7C423.483 174.7 394.584 169.497 370.649 177.415C370.649 177.415 374.262 159.549 372.907 149.373C371.551 139.198 375.164 124.95 375.164 124.95L377.195 116.355C377.195 116.355 377.082 108.313 368.727 112.395C368.727 112.395 367.485 100.749 376.066 99.3914C376.066 99.3914 385.984 100.749 388.936 95.7727C388.936 95.7916 395.487 99.6374 401.806 96.6951Z" fill="black"/>
<path d="M401.806 96.2457C401.806 96.2457 407.79 94.7745 407.79 93.1945L411.676 95.4321C412.605 95.965 413.657 96.2455 414.727 96.2457H424.045C425.019 96.2429 425.98 96.4722 426.848 96.9147C427.716 97.3573 428.467 98.0003 429.037 98.7907C431.177 101.804 433.094 107.745 427.998 117.958C419.87 134.241 423.483 174.251 423.483 174.251C423.483 174.251 394.585 169.047 370.65 176.966C370.65 176.966 374.262 159.099 372.907 148.924C371.552 138.749 375.164 124.534 375.164 124.534L377.195 115.939C377.195 115.939 377.082 107.897 368.727 111.979C368.727 111.979 367.518 100.654 375.712 99.0367C375.94 98.9859 376.174 98.97 376.407 98.9893C378.159 99.1738 386.324 99.7651 388.941 95.3327C388.936 95.3374 395.487 99.1833 401.806 96.2457Z" fill="#E14B5A"/>
<path opacity="0.1" d="M424.612 116.823C424.612 116.823 417.386 121.345 405.645 116.823C405.645 116.823 392.776 112.093 388.709 102.802C384.643 93.5115 409.254 104.387 409.254 104.387C409.254 104.387 414.449 104.387 416.026 103.256C417.604 102.126 428.674 111.847 424.612 116.823Z" fill="black"/>
<path d="M424.612 115.92C424.612 115.92 417.386 120.442 405.645 115.92C405.645 115.92 392.776 111.189 388.709 101.899C384.643 92.608 375.165 82.4328 375.165 82.4328C375.165 82.4328 358.682 76.0987 359.579 69.7694C360.477 63.44 378.546 76.7799 378.546 76.7799L385.772 83.5634L409.254 103.464C409.254 103.464 414.449 103.464 416.026 102.334C417.604 101.203 428.674 110.943 424.612 115.92Z" fill="#F7C4A7"/>
<path opacity="0.1" d="M389.39 76.567L408.805 74.9823C407.807 77.9721 407.128 81.0594 406.779 84.1925C404.522 86.5368 401.436 87.8998 398.186 87.9883C394.935 88.0768 391.78 86.8836 389.399 84.6656C389.894 81.9885 389.891 79.2429 389.39 76.567Z" fill="black"/>
<path d="M398.084 87.3099C404.942 87.3099 410.5 81.7419 410.5 74.8735C410.5 68.0051 404.942 62.4372 398.084 62.4372C391.227 62.4372 385.668 68.0051 385.668 74.8735C385.668 81.7419 391.227 87.3099 398.084 87.3099Z" fill="#F7C4A7"/>
<path opacity="0.1" d="M404.899 77.5746C404.172 76.3731 405.65 74.8073 405.164 73.4922C404.715 72.2812 402.93 72.0731 402.33 70.9425C401.858 70.0296 402.33 68.9084 402.141 67.9008C401.872 66.6 400.474 65.7911 399.147 65.7248C397.82 65.6586 396.54 66.1553 395.279 66.5811C393.224 67.2764 391.061 67.811 388.908 67.565C386.754 67.319 384.605 66.1459 383.647 64.2206C383.49 63.9401 383.407 63.6243 383.406 63.3029C383.444 62.5933 384.095 62.106 384.516 61.5384C385.252 60.5497 385.337 59.2016 386.008 58.1703C387.378 56.07 390.386 56.122 392.889 56.1126C396.573 56.1126 400.238 55.4219 403.922 55.5449C407.605 55.6679 411.478 56.7133 413.92 59.4854C416.848 62.8203 416.98 67.7022 416.956 72.1488C416.956 73.9795 416.881 75.971 415.714 77.3854C415.374 77.7969 414.959 78.1375 414.633 78.5586C413.924 79.5046 413.735 80.7156 413.07 81.6759C411.889 83.3836 409.584 83.7999 407.53 84.0743C408.134 83.9938 407.634 79.9398 407.53 79.5661C407.133 77.7023 406.703 77.7402 404.899 77.5746Z" fill="black"/>
<path d="M404.899 77.1252C404.172 75.9237 405.65 74.3579 405.164 73.0429C404.715 71.8319 402.93 71.6237 402.33 70.4931C401.858 69.5802 402.33 68.4591 402.141 67.4515C401.872 66.1506 400.474 65.3417 399.147 65.2755C397.82 65.2092 396.54 65.7059 395.279 66.1317C393.224 66.8271 391.061 67.3616 388.908 67.1156C386.754 66.8696 384.605 65.6965 383.647 63.7712C383.49 63.4907 383.407 63.1749 383.406 62.8535C383.444 62.1439 384.095 61.6567 384.516 61.089C385.252 60.1004 385.337 58.7522 386.008 57.7209C387.378 55.6206 390.386 55.6727 392.889 55.6632C396.573 55.6632 400.238 54.9726 403.922 55.0955C407.605 55.2185 411.478 56.264 413.92 59.036C416.848 62.371 416.98 67.2528 416.956 71.6994C416.956 73.5301 416.881 75.5216 415.714 76.936C415.374 77.3476 414.959 77.6882 414.633 78.1092C413.924 79.0553 413.735 80.2663 413.07 81.2265C411.889 82.9342 409.584 83.3505 407.53 83.6249C408.134 83.5445 407.634 79.4905 407.53 79.1168C407.133 77.2293 406.703 77.2861 404.899 77.1252Z" fill="#281C1C"/>
<path opacity="0.1" d="M424.499 117.391C424.499 117.391 418.402 101.558 413.66 101.109C408.918 100.659 422.69 101.109 422.69 101.109L427.205 109.25L424.499 117.391Z" fill="black"/>
<path d="M424.952 117.391C424.952 117.391 418.855 101.558 414.114 101.109C409.372 100.659 423.144 101.109 423.144 101.109L427.659 109.25L424.952 117.391Z" fill="#E14B5A"/>
<path d="M407.884 299.646C408.205 302.101 408.356 304.078 408.356 304.078C408.583 302.72 422.581 296.613 422.581 296.613V292.938C422.225 292.924 421.867 292.942 421.514 292.99C418.798 293.354 416.281 294.674 413.957 296.084C411.995 297.374 409.968 298.563 407.884 299.646Z" fill="#618FD8"/>
<path opacity="0.3" d="M407.884 299.646C408.205 302.101 408.356 304.078 408.356 304.078C408.583 302.72 422.581 296.613 422.581 296.613V292.938C422.225 292.924 421.867 292.942 421.514 292.99C418.798 293.354 416.281 294.674 413.957 296.084C411.995 297.374 409.968 298.563 407.884 299.646Z" fill="black"/>
<path d="M373.809 297.971C376.742 296.613 389.163 300.909 389.163 300.909L390.419 296.627C388.251 296.188 386.098 295.639 383.982 294.986C382.994 294.7 382.028 294.342 381.092 293.917C380.466 293.582 379.823 293.282 379.165 293.018C377.545 292.46 375.859 292.696 374.196 292.976C373.979 296.022 373.809 297.971 373.809 297.971Z" fill="#618FD8"/>
<path opacity="0.3" d="M373.809 297.971C376.742 296.613 389.163 300.909 389.163 300.909L390.419 296.627C388.251 296.188 386.098 295.639 383.982 294.986C382.994 294.7 382.028 294.342 381.092 293.917C380.466 293.582 379.823 293.282 379.165 293.018C377.545 292.46 375.859 292.696 374.196 292.976C373.979 296.022 373.809 297.971 373.809 297.971Z" fill="black"/>
<path opacity="0.4" d="M435.111 310.861C435.3 310.78 435.468 310.657 435.602 310.502C435.736 310.346 435.833 310.162 435.886 309.963C435.97 310.275 435.938 310.607 435.795 310.897C435.652 311.187 435.409 311.415 435.111 311.538C432.4 312.896 416.824 313.799 409.136 307.919V307.243C416.824 313.123 432.4 312.219 435.111 310.861Z" fill="white"/>
<path opacity="0.4" d="M364.892 311.765C369.615 312.896 386.57 310.407 388.147 307.692V308.368C386.565 311.084 369.634 313.572 364.892 312.441C362.956 311.968 362.337 311.022 362.531 309.986C362.682 310.753 363.39 311.386 364.892 311.765Z" fill="white"/>
<path opacity="0.1" d="M392.436 147.018C392.436 147.018 387.467 145.433 386.112 147.018C384.756 148.602 373.171 152.316 373.171 152.316" fill="black"/>
<path d="M336.22 84.8784H360.377V84.3675H336.22V84.8784Z" fill="#8ED16F"/>
<path d="M336.22 85.3893H360.377V84.8784H336.22V85.3893Z" fill="#8ED16F"/>
<path opacity="0.1" d="M336.22 85.3893H360.377V84.8784H336.22V85.3893Z" fill="black"/>
<path d="M336.22 85.9002H360.377V85.3893H336.22V85.9002Z" fill="#8ED16F"/>
<path d="M336.22 86.4064H360.377V85.8955H336.22V86.4064Z" fill="#8ED16F"/>
<path opacity="0.1" d="M336.22 86.4064H360.377V85.8955H336.22V86.4064Z" fill="black"/>
<path d="M336.22 86.9173H360.377V86.4064H336.22V86.9173Z" fill="#8ED16F"/>
<path d="M336.22 87.4234H360.377V86.9125H336.22V87.4234Z" fill="#8ED16F"/>
<path opacity="0.1" d="M336.22 87.4234H360.377V86.9125H336.22V87.4234Z" fill="black"/>
<path d="M336.22 87.9343H360.377V87.4234H336.22V87.9343Z" fill="#8ED16F"/>
<path d="M336.22 88.4405H360.377V87.9296H336.22V88.4405Z" fill="#8ED16F"/>
<path opacity="0.1" d="M336.22 88.4405H360.377V87.9296H336.22V88.4405Z" fill="black"/>
<path d="M336.22 80.8102H360.377V80.2993H336.22V80.8102Z" fill="#8ED16F"/>
<path d="M353.307 68.7147L371.88 84.1867L372.207 83.7939L353.634 68.3219L353.307 68.7147Z" fill="#8ED16F"/>
<path d="M336.374 60.5746L354.947 76.0466L355.273 75.6538L336.7 60.1818L336.374 60.5746Z" fill="#8ED16F"/>
<path d="M336.22 81.3164H360.377V80.8055H336.22V81.3164Z" fill="#8ED16F"/>
<path opacity="0.1" d="M336.22 81.3164H360.377V80.8055H336.22V81.3164Z" fill="black"/>
<path d="M336.22 81.832H360.377V81.3211H336.22V81.832Z" fill="#8ED16F"/>
<path d="M336.22 82.3382H360.377V81.8273H336.22V82.3382Z" fill="#8ED16F"/>
<path opacity="0.1" d="M336.22 82.3382H360.377V81.8273H336.22V82.3382Z" fill="black"/>
<path d="M336.22 82.8443H360.377V82.3334H336.22V82.8443Z" fill="#8ED16F"/>
<path d="M336.22 83.3552H360.377V82.8443H336.22V83.3552Z" fill="#8ED16F"/>
<path opacity="0.1" d="M336.22 83.3552H360.377V82.8443H336.22V83.3552Z" fill="black"/>
<path d="M336.22 83.8614H360.377V83.3505H336.22V83.8614Z" fill="#8ED16F"/>
<path d="M336.22 84.3723H360.377V83.8614H336.22V84.3723Z" fill="#8ED16F"/>
<path opacity="0.1" d="M336.22 84.3723H360.377V83.8614H336.22V84.3723Z" fill="black"/>
<path d="M333.158 104.208L341.813 105.818L344.946 88.9214L336.291 87.3115L333.158 104.208Z" fill="#8ED16F"/>
<path d="M340.946 96.9486C341.311 94.9836 340.812 93.243 339.832 93.0607C338.853 92.8785 337.763 94.3238 337.399 96.2888C337.035 98.2538 337.533 99.9945 338.513 100.177C339.493 100.359 340.582 98.9137 340.946 96.9486Z" fill="#8ED16F"/>
<path opacity="0.1" d="M340.946 96.9486C341.311 94.9836 340.812 93.243 339.832 93.0607C338.853 92.8785 337.763 94.3238 337.399 96.2888C337.035 98.2538 337.533 99.9945 338.513 100.177C339.493 100.359 340.582 98.9137 340.946 96.9486Z" fill="black"/>
<path d="M334.639 139.873L343.294 141.483L346.427 124.586L337.772 122.976L334.639 139.873Z" fill="#8ED16F"/>
<path d="M342.423 132.609C342.787 130.644 342.289 128.904 341.309 128.721C340.329 128.539 339.24 129.985 338.875 131.95C338.511 133.915 339.01 135.655 339.99 135.837C340.969 136.02 342.059 134.574 342.423 132.609Z" fill="#8ED16F"/>
<path opacity="0.1" d="M342.423 132.609C342.787 130.644 342.289 128.904 341.309 128.721C340.329 128.539 339.24 129.985 338.875 131.95C338.511 133.915 339.01 135.655 339.99 135.837C340.969 136.02 342.059 134.574 342.423 132.609Z" fill="black"/>
<path d="M303.334 52.2103L299.144 59.9651L314.234 68.1444L318.424 60.3895L303.334 52.2103Z" fill="#8ED16F"/>
<path d="M313.433 62.247C313.911 61.3688 312.875 59.8791 311.119 58.9198C309.363 57.9605 307.552 57.8947 307.074 58.773C306.596 59.6512 307.631 61.1408 309.387 62.1002C311.143 63.0595 312.954 63.1252 313.433 62.247Z" fill="#8ED16F"/>
<path opacity="0.1" d="M313.433 62.247C313.911 61.3688 312.875 59.8791 311.119 58.9198C309.363 57.9605 307.552 57.8947 307.074 58.773C306.596 59.6512 307.631 61.1408 309.387 62.1002C311.143 63.0595 312.954 63.1252 313.433 62.247Z" fill="black"/>
<path d="M270.2 205.252L266.01 213.006L281.1 221.186L285.29 213.431L270.2 205.252Z" fill="#8ED16F"/>
<path d="M278.779 215.045C279.253 214.167 278.215 212.684 276.46 211.733C274.705 210.782 272.898 210.722 272.424 211.6C271.949 212.478 272.988 213.96 274.742 214.911C276.497 215.863 278.304 215.922 278.779 215.045Z" fill="#8ED16F"/>
<path opacity="0.1" d="M278.779 215.045C279.253 214.167 278.215 212.684 276.46 211.733C274.705 210.782 272.898 210.722 272.424 211.6C271.949 212.478 272.988 213.96 274.742 214.911C276.497 215.863 278.304 215.922 278.779 215.045Z" fill="black"/>
<path d="M249.928 78.9567L245.738 86.7116L260.828 94.8908L265.018 87.1359L249.928 78.9567Z" fill="#8ED16F"/>
<path d="M258.502 88.7427C258.976 87.865 257.938 86.3823 256.183 85.4311C254.428 84.48 252.621 84.4204 252.147 85.2981C251.673 86.1758 252.711 87.6585 254.466 88.6096C256.221 89.5608 258.028 89.6204 258.502 88.7427Z" fill="#8ED16F"/>
<path opacity="0.1" d="M258.502 88.7427C258.976 87.865 257.938 86.3823 256.183 85.4311C254.428 84.48 252.621 84.4204 252.147 85.2981C251.673 86.1758 252.711 87.6585 254.466 88.6096C256.221 89.5608 258.028 89.6204 258.502 88.7427Z" fill="black"/>
<path d="M275.336 52.2082L271.146 59.9631L286.236 68.1423L290.426 60.3875L275.336 52.2082Z" fill="#8ED16F"/>
<path d="M283.91 61.9943C284.385 61.1165 283.346 59.6339 281.592 58.6827C279.837 57.7315 278.03 57.6719 277.555 58.5497C277.081 59.4274 278.119 60.91 279.874 61.8612C281.629 62.8124 283.436 62.872 283.91 61.9943Z" fill="#8ED16F"/>
<path opacity="0.1" d="M283.91 61.9943C284.385 61.1165 283.346 59.6339 281.592 58.6827C279.837 57.7315 278.03 57.6719 277.555 58.5497C277.081 59.4274 278.119 60.91 279.874 61.8612C281.629 62.8124 283.436 62.872 283.91 61.9943Z" fill="black"/>
<path d="M300.703 83.7697L291.952 84.7281L293.817 101.812L302.568 100.854L300.703 83.7697Z" fill="#8ED16F"/>
<path d="M297.537 96.4028C298.528 96.2943 299.155 94.5958 298.938 92.609C298.721 90.6222 297.742 89.0996 296.752 89.2081C295.761 89.3165 295.134 91.0151 295.351 93.0018C295.568 94.9886 296.547 96.5112 297.537 96.4028Z" fill="#8ED16F"/>
<path opacity="0.1" d="M297.537 96.4028C298.528 96.2943 299.155 94.5958 298.938 92.609C298.721 90.6222 297.742 89.0996 296.752 89.2081C295.761 89.3165 295.134 91.0151 295.351 93.0018C295.568 94.9886 296.547 96.5112 297.537 96.4028Z" fill="black"/>
<path d="M360.702 177.318L351.951 178.276L353.816 195.36L362.567 194.402L360.702 177.318Z" fill="#8ED16F"/>
<path d="M357.54 189.951C358.531 189.843 359.158 188.144 358.941 186.157C358.724 184.171 357.745 182.648 356.755 182.756C355.764 182.865 355.137 184.563 355.354 186.55C355.571 188.537 356.55 190.06 357.54 189.951Z" fill="#8ED16F"/>
<path opacity="0.1" d="M357.54 189.951C358.531 189.843 359.158 188.144 358.941 186.157C358.724 184.171 357.745 182.648 356.755 182.756C355.764 182.865 355.137 184.563 355.354 186.55C355.571 188.537 356.55 190.06 357.54 189.951Z" fill="black"/>
<path d="M266.436 120.06L262.247 127.815L277.337 135.994L281.526 128.24L266.436 120.06Z" fill="#8ED16F"/>
<path d="M275.008 129.853C275.482 128.975 274.444 127.492 272.689 126.541C270.934 125.59 269.127 125.53 268.653 126.408C268.179 127.286 269.217 128.769 270.972 129.72C272.727 130.671 274.534 130.731 275.008 129.853Z" fill="#8ED16F"/>
<path opacity="0.1" d="M275.008 129.853C275.482 128.975 274.444 127.492 272.689 126.541C270.934 125.59 269.127 125.53 268.653 126.408C268.179 127.286 269.217 128.769 270.972 129.72C272.727 130.671 274.534 130.731 275.008 129.853Z" fill="black"/>
<path d="M228.357 109.167L224.167 116.922L239.257 125.101L243.447 117.346L228.357 109.167Z" fill="#8ED16F"/>
<path d="M238.185 119.474C238.663 118.596 237.628 117.107 235.872 116.147C234.116 115.188 232.305 115.122 231.826 116C231.348 116.879 232.384 118.368 234.14 119.328C235.896 120.287 237.707 120.353 238.185 119.474Z" fill="#8ED16F"/>
<path opacity="0.1" d="M238.185 119.474C238.663 118.596 237.628 117.107 235.872 116.147C234.116 115.188 232.305 115.122 231.826 116C231.348 116.879 232.384 118.368 234.14 119.328C235.896 120.287 237.707 120.353 238.185 119.474Z" fill="black"/>
<path d="M216.161 292.57L211.971 300.325L227.061 308.504L231.251 300.749L216.161 292.57Z" fill="#8ED16F"/>
<path d="M224.735 302.358C225.209 301.48 224.171 299.998 222.416 299.046C220.661 298.095 218.854 298.036 218.38 298.913C217.906 299.791 218.944 301.274 220.699 302.225C222.454 303.176 224.261 303.236 224.735 302.358Z" fill="#8ED16F"/>
<path opacity="0.1" d="M224.735 302.358C225.209 301.48 224.171 299.998 222.416 299.046C220.661 298.095 218.854 298.036 218.38 298.913C217.906 299.791 218.944 301.274 220.699 302.225C222.454 303.176 224.261 303.236 224.735 302.358Z" fill="black"/>
<path d="M205.182 295.559L203.576 304.228L220.446 307.363L222.052 298.694L205.182 295.559Z" fill="#8ED16F"/>
<path opacity="0.05" d="M205.182 295.559L203.576 304.228L220.446 307.363L222.052 298.694L205.182 295.559Z" fill="black"/>
<path d="M216.349 302.231C216.531 301.25 215.088 300.159 213.126 299.794C211.164 299.43 209.426 299.93 209.245 300.911C209.063 301.892 210.506 302.983 212.468 303.348C214.43 303.712 216.168 303.212 216.349 302.231Z" fill="#8ED16F"/>
<path opacity="0.1" d="M216.349 302.231C216.531 301.25 215.088 300.159 213.126 299.794C211.164 299.43 209.426 299.93 209.245 300.911C209.063 301.892 210.506 302.983 212.468 303.348C214.43 303.712 216.168 303.212 216.349 302.231Z" fill="black"/>
<path d="M206.763 300.758L205.157 309.428L222.027 312.562L223.633 303.893L206.763 300.758Z" fill="#8ED16F"/>
<path d="M217.925 307.43C218.107 306.449 216.664 305.358 214.702 304.993C212.74 304.629 211.003 305.129 210.821 306.11C210.639 307.091 212.082 308.182 214.044 308.547C216.006 308.911 217.744 308.411 217.925 307.43Z" fill="#8ED16F"/>
<path opacity="0.1" d="M217.925 307.43C218.107 306.449 216.664 305.358 214.702 304.993C212.74 304.629 211.003 305.129 210.821 306.11C210.639 307.091 212.082 308.182 214.044 308.547C216.006 308.911 217.744 308.411 217.925 307.43Z" fill="black"/>
<path d="M233.961 314.859L229.771 322.614L244.861 330.793L249.051 323.038L233.961 314.859Z" fill="#8ED16F"/>
<path d="M242.54 324.647C243.014 323.769 241.976 322.287 240.221 321.336C238.466 320.384 236.659 320.325 236.185 321.202C235.711 322.08 236.749 323.563 238.504 324.514C240.259 325.465 242.066 325.525 242.54 324.647Z" fill="#8ED16F"/>
<path opacity="0.1" d="M242.54 324.647C243.014 323.769 241.976 322.287 240.221 321.336C238.466 320.384 236.659 320.325 236.185 321.202C235.711 322.08 236.749 323.563 238.504 324.514C240.259 325.465 242.066 325.525 242.54 324.647Z" fill="black"/>
<path d="M222.985 317.842L221.379 326.512L238.249 329.646L239.855 320.977L222.985 317.842Z" fill="#8ED16F"/>
<path opacity="0.05" d="M222.985 317.842L221.379 326.512L238.249 329.646L239.855 320.977L222.985 317.842Z" fill="black"/>
<path d="M234.148 324.514C234.33 323.533 232.887 322.442 230.925 322.077C228.963 321.713 227.225 322.213 227.043 323.194C226.862 324.175 228.305 325.266 230.267 325.631C232.229 325.995 233.966 325.495 234.148 324.514Z" fill="#8ED16F"/>
<path opacity="0.1" d="M234.148 324.514C234.33 323.533 232.887 322.442 230.925 322.077C228.963 321.713 227.225 322.213 227.043 323.194C226.862 324.175 228.305 325.266 230.267 325.631C232.229 325.995 233.966 325.495 234.148 324.514Z" fill="black"/>
<path d="M224.565 323.047L222.959 331.716L239.829 334.851L241.435 326.181L224.565 323.047Z" fill="#8ED16F"/>
<path d="M235.733 329.719C235.914 328.737 234.471 327.647 232.509 327.282C230.547 326.917 228.81 327.417 228.628 328.399C228.446 329.38 229.889 330.471 231.851 330.835C233.813 331.2 235.551 330.7 235.733 329.719Z" fill="#8ED16F"/>
<path opacity="0.1" d="M235.733 329.719C235.914 328.737 234.471 327.647 232.509 327.282C230.547 326.917 228.81 327.417 228.628 328.399C228.446 329.38 229.889 330.471 231.851 330.835C233.813 331.2 235.551 330.7 235.733 329.719Z" fill="black"/>
<path d="M260.667 300.495L256.478 308.25L271.568 316.429L275.757 308.674L260.667 300.495Z" fill="#8ED16F"/>
<path d="M269.238 310.281C269.712 309.403 268.674 307.92 266.919 306.969C265.164 306.018 263.357 305.958 262.883 306.836C262.408 307.714 263.447 309.196 265.201 310.148C266.956 311.099 268.763 311.158 269.238 310.281Z" fill="#8ED16F"/>
<path opacity="0.1" d="M269.238 310.281C269.712 309.403 268.674 307.92 266.919 306.969C265.164 306.018 263.357 305.958 262.883 306.836C262.408 307.714 263.447 309.196 265.201 310.148C266.956 311.099 268.763 311.158 269.238 310.281Z" fill="black"/>
<path d="M249.689 303.481L248.083 312.15L264.954 315.285L266.559 306.615L249.689 303.481Z" fill="#8ED16F"/>
<path opacity="0.05" d="M249.689 303.481L248.083 312.15L264.954 315.285L266.559 306.615L249.689 303.481Z" fill="black"/>
<path d="M260.852 310.153C261.033 309.172 259.59 308.081 257.628 307.716C255.667 307.351 253.929 307.851 253.747 308.833C253.565 309.814 255.008 310.905 256.97 311.269C258.932 311.634 260.67 311.134 260.852 310.153Z" fill="#8ED16F"/>
<path opacity="0.1" d="M260.852 310.153C261.033 309.172 259.59 308.081 257.628 307.716C255.667 307.351 253.929 307.851 253.747 308.833C253.565 309.814 255.008 310.905 256.97 311.269C258.932 311.634 260.67 311.134 260.852 310.153Z" fill="black"/>
<path d="M251.269 308.684L249.663 317.354L266.533 320.489L268.139 311.819L251.269 308.684Z" fill="#8ED16F"/>
<path d="M262.436 315.357C262.618 314.376 261.175 313.285 259.213 312.921C257.251 312.556 255.513 313.056 255.332 314.037C255.15 315.018 256.593 316.11 258.555 316.474C260.517 316.839 262.254 316.339 262.436 315.357Z" fill="#8ED16F"/>
<path opacity="0.1" d="M262.436 315.357C262.618 314.376 261.175 313.285 259.213 312.921C257.251 312.556 255.513 313.056 255.332 314.037C255.15 315.018 256.593 316.11 258.555 316.474C260.517 316.839 262.254 316.339 262.436 315.357Z" fill="black"/>
</g>
<defs>
<linearGradient id="paint0_linear_167_400" x1="218.061" y1="293.557" x2="218.061" y2="125.574" gradientUnits="userSpaceOnUse">
<stop stop-color="#808080" stop-opacity="0.25"/>
<stop offset="0.54" stop-color="#808080" stop-opacity="0.12"/>
<stop offset="1" stop-color="#808080" stop-opacity="0.1"/>
</linearGradient>
<linearGradient id="paint1_linear_167_400" x1="386.145" y1="314.594" x2="386.145" y2="53.3878" gradientUnits="userSpaceOnUse">
<stop stop-color="#808080" stop-opacity="0.25"/>
<stop offset="0.54" stop-color="#808080" stop-opacity="0.12"/>
<stop offset="1" stop-color="#808080" stop-opacity="0.1"/>
</linearGradient>
<clipPath id="clip0_167_400">
<rect width="460" height="338" fill="white"/>
</clipPath>
</defs>
</svg>
